<svg xmlns="http://www.w3.org/2000/svg" width="112.815" height="119.083" viewBox="0 0 112.815 119.083">
  <path id="person_celebrate_FILL0_wght400_GRAD0_opsz48" d="M159.642,295.083l.184-35.593c-6.685-.555-13.209-.855-19.825-2.031a165.75,165.75,0,0,1-19.8-4.28l2.152-6.67a204.735,204.735,0,0,0,26.815,4.466q13.5,1.332,27.312,1.332,13.656,0,27.153-1.332a205.393,205.393,0,0,0,26.835-4.466l1.877,7.4c-6.581,1.567-12.4,2.466-19.077,3.409s-13.181,1.626-19.907,2.126l-.184,35.643Zm16.766-52.334a11.487,11.487,0,1,1,8.078-3.369A11.009,11.009,0,0,1,176.408,242.749Zm-48.589-18.176A7.758,7.758,0,0,1,120,216.754a7.661,7.661,0,0,1,2.272-5.5,7.421,7.421,0,0,1,5.547-2.35,8.031,8.031,0,0,1,7.85,7.85,7.421,7.421,0,0,1-2.35,5.547A7.661,7.661,0,0,1,127.819,224.573Zm97.147,0a7.758,7.758,0,0,1-7.819-7.819,7.661,7.661,0,0,1,2.272-5.5,7.421,7.421,0,0,1,5.547-2.35,8.031,8.031,0,0,1,7.85,7.85,7.421,7.421,0,0,1-2.35,5.547A7.661,7.661,0,0,1,224.966,224.573Zm-78.344-23.5a7.758,7.758,0,0,1-7.819-7.819,7.661,7.661,0,0,1,2.272-5.5,7.421,7.421,0,0,1,5.547-2.35,8.031,8.031,0,0,1,7.85,7.85,7.421,7.421,0,0,1-2.35,5.547A7.661,7.661,0,0,1,146.622,201.07Zm59.541,0a7.758,7.758,0,0,1-7.819-7.819,7.661,7.661,0,0,1,2.272-5.5,7.421,7.421,0,0,1,5.547-2.35,8.031,8.031,0,0,1,7.85,7.85,7.421,7.421,0,0,1-2.35,5.547A7.661,7.661,0,0,1,206.163,201.07Zm-29.771-9.4a7.758,7.758,0,0,1-7.819-7.819,7.661,7.661,0,0,1,2.272-5.5,7.421,7.421,0,0,1,5.547-2.35,8.031,8.031,0,0,1,7.85,7.85,7.421,7.421,0,0,1-2.35,5.547,7.661,7.661,0,0,1-5.5,2.272Z" transform="translate(-120 -176)" fill="#fff"/>
</svg>
