<svg xmlns="http://www.w3.org/2000/svg" width="142.922" height="60.626" viewBox="0 0 142.922 60.626">
  <g id="グループ_1768" data-name="グループ 1768" transform="translate(-517.794 -905.349)">
    <g id="グループ_1767" data-name="グループ 1767">
      <path id="パス_99" data-name="パス 99" d="M7889.811,789.516h30.3c12.81,0,18.563,8.749,20.483,14.083s2.349,13.443-2.347,23.9-12.8,16.644-20.271,16.644-16-3.2-19.63-9.175-4.7-16-5.549-22.192S7889.811,789.516,7889.811,789.516Z" transform="translate(-7361.371 118.833)" fill="#fff" stroke="#000" stroke-width="6"/>
      <path id="パス_102" data-name="パス 102" d="M7941.957,789.516h-30.3c-12.811,0-18.564,8.749-20.483,14.083s-2.349,13.443,2.347,23.9,12.8,16.644,20.271,16.644,16-3.2,19.63-9.175,4.694-16,5.548-22.192S7941.957,789.516,7941.957,789.516Z" transform="translate(-7291.886 118.833)" fill="#fff" stroke="#000" stroke-width="6"/>
      <path id="パス_100" data-name="パス 100" d="M7882.6,789.516h10.86" transform="translate(-7364.806 118.833)" fill="#fff" stroke="#000" stroke-width="6"/>
      <path id="パス_101" data-name="パス 101" d="M7893.459,789.516H7882.6" transform="translate(-7232.743 118.833)" fill="#fff" stroke="#000" stroke-width="6"/>
    </g>
    <rect id="長方形_1485" data-name="長方形 1485" width="18.686" height="13.19" transform="translate(580.4 919.332)"/>
  </g>
</svg>
